<?xml version="1.0" encoding="UTF-8"?>
<svg xmlns="http://www.w3.org/2000/svg" xmlns:xlink="http://www.w3.org/1999/xlink" viewBox="0 0 24 24" width="24px" height="24px">
<g id="surface51654627">
<path style=" stroke:none;fill-rule:nonzero;fill:rgb(0%,0%,0%);fill-opacity:1;" d="M 19.328125 9.269531 L 20.546875 8.046875 C 21.816406 6.78125 21.816406 4.71875 20.546875 3.453125 C 19.933594 2.839844 19.121094 2.5 18.25 2.5 C 17.378906 2.5 16.566406 2.839844 15.953125 3.453125 L 14.730469 4.671875 Z M 13.671875 5.730469 L 4.636719 14.765625 C 4.445312 14.960938 4.296875 15.195312 4.214844 15.453125 L 2.539062 20.515625 C 2.449219 20.785156 2.519531 21.078125 2.71875 21.28125 C 2.863281 21.421875 3.054688 21.5 3.25 21.5 C 3.328125 21.5 3.410156 21.488281 3.484375 21.460938 L 8.546875 19.785156 C 8.804688 19.703125 9.042969 19.554688 9.234375 19.363281 L 18.269531 10.328125 Z M 13.671875 5.730469 "/>
</g>
</svg>
